<?xml version="1.0" encoding="utf-8"?>
<!-- Generator: Adobe Illustrator 22.1.0, SVG Export Plug-In . SVG Version: 6.00 Build 0)  -->
<svg version="1.1" id="Layer_1" xmlns="http://www.w3.org/2000/svg" xmlns:xlink="http://www.w3.org/1999/xlink" x="0px" y="0px"
	 viewBox="0 0 80 50"  width="72px" height="45px" xml:space="preserve">
<style type="text/css">
	.st0{fill:#ffffff;}
</style>
<g>
	<path class="st0" d="M2.4,44.6c-3.2-3.2-3.3-8,0-11.3c3.2-3.2,8.1-3.2,11.3,0s3.3,8.1,0,11.3C10.4,47.9,5.6,47.8,2.4,44.6z
		 M11.1,35.9c-1.9-1.9-4.6-2-6.3-0.3C3,37.4,3.2,40.1,5,42c1.9,1.9,4.5,2,6.3,0.2C13,40.5,12.9,37.8,11.1,35.9z"/>
	<path class="st0" d="M24.7,33.6c-2.6,2.6-5.7,2.5-8,0.3l2.4-2.4c1.1,1.1,2.3,1.2,3.5,0c0.7-0.7,1-1.7,0.3-2.4
		c-0.8-0.8-2-0.4-3.7,0.3c-2.1,0.8-4.6,1.8-6.5,0c-2.1-2.1-1.6-4.9,0.4-6.9c2.4-2.4,5.4-2.2,7.2-0.4l-2.3,2.3
		c-0.8-0.7-1.9-0.8-2.8,0.2c-0.7,0.7-0.8,1.5-0.2,2.1c0.6,0.6,1.4,0.3,3.1-0.3c2.9-1.1,5.3-1.8,7.3,0.2C27.6,28.6,27,31.3,24.7,33.6
		z"/>
	<path class="st0" d="M32.4,14.6c-3.2-3.2-3.3-8,0-11.3c3.2-3.2,8.1-3.2,11.3,0c3.2,3.2,3.3,8.1,0,11.3
		C40.4,17.9,35.6,17.8,32.4,14.6z M41,5.9c-1.9-1.9-4.6-2-6.3-0.3C33,7.5,33.1,10.1,35,12c1.9,1.9,4.5,2,6.3,0.2
		C43,10.5,42.9,7.8,41,5.9z"/>
	<path class="st0" d="M34.4,18.7l2.4,2.4l-6.3,6.3L19.6,16.4L22,14l8.5,8.5L34.4,18.7z"/>
	<path class="st0" d="M77.7,42.2l-2.4-2.4l-8.5,8.5l-2.5-2.5l8.5-8.5l-2.4-2.4l2.3-2.3l7.4,7.4L77.7,42.2z"/>
	<path class="st0" d="M62.4,39.4l-2.3,2.3l-6.4-6.4l10.8-10.8l6.4,6.4l-2.3,2.3l-4-4l-2,2l3.6,3.6l-2.1,2.1l-3.6-3.6l-2.1,2.1
		L62.4,39.4z"/>
	<path class="st0" d="M51.8,33.3l-2.4-2.4l5.9-6l-8,3.9l-2.2-2.2l3.9-8.1l-6,6l-2.4-2.4l10.8-10.8l3.2,3.2l-4.9,9.7l9.7-5l3.2,3.2
		L51.8,33.3z"/>
</g>
</svg>
